<svg xmlns="http://www.w3.org/2000/svg" width="500" height="240">
    <defs>
        <style>
            .cls-1{fill:#4b3f8f}
        </style>
    </defs>
    <g id="그룹_5672" data-name="그룹 5672" transform="translate(98.526 -72.059)">
        <path id="패스_11558" data-name="패스 11558" class="cls-1" d="M552.56 411.636v.017a.032.032 0 0 0 0-.015s.003-.002 0-.002zm-.01.107.008-.045a.731.731 0 0 1-.025.132c.007-.03.012-.057.017-.087zm-5.67 35.4v-.028c0 .022 0 .045-.006.066zm0-.1a.167.167 0 0 1 0 .035v.036a.609.609 0 0 0 .006-.069zm-55.1-46.894 1-6.235zm-3.819-10.363a.433.433 0 0 1 .095-.035l-.042.015zm-.331.184.035-.027a.441.441 0 0 0-.055.04.054.054 0 0 1 .028-.012zm-.385.384a2.463 2.463 0 0 1 .213-.245 1.38 1.38 0 0 0-.204.246zm0 0-.056.079a.655.655 0 0 0 .065-.078zm-.517 2.117.227-1.42-.229 1.42zm-2.2 52.97 1.006-6.29-1.009 6.29zm-3.512 2.332a.886.886 0 0 0 .067-.072l-.027.027a.232.232 0 0 1-.031.046zm-10.734-54.853c.03 0 .057-.007.085-.01l-.2.02zm-1.48.306c.075-.025.152-.047.227-.07-.1.027-.194.055-.289.087.029-.003.048-.011.071-.016zm-.976.394c.042-.025.085-.042.127-.062a4.484 4.484 0 0 0-.242.117zm-1.876 1.328c-.037.037-.077.075-.112.112.1-.107.209-.212.321-.311l-.1.092a1.529 1.529 0 0 0-.1.107zm-4.875 43.307c.022.02.042.037.065.055q-.116-.093-.224-.194c.061.047.113.095.168.139zm-1.233-32-13.975-2.24q-.09-.015-.179-.022c.06.007.12.015.179.025l13.975 2.239zm-2.715 16.984.391-2.444zm-12.58-19.191c.036-.008.073-.014.11-.02-.038.007-.077.013-.115.021zm.11-.02c.045-.008.09-.013.135-.02l-.068.008zm-.423.1a3.15 3.15 0 0 1 .167-.044zm.558-.12c.074-.01.147-.021.224-.025s.149-.01.224-.01h.192a3.564 3.564 0 0 0-.632.035zm.64-.031c.085 0 .171.006.257.016a2.11 2.11 0 0 0-.217-.015zm-1.652.322a1.359 1.359 0 0 1 .187-.08l-.1.04a.743.743 0 0 0-.079.041zm-.087.04a2.953 2.953 0 0 0-.356.2 3.829 3.829 0 0 1 .363-.199zm-.356.2a2.769 2.769 0 0 0-.331.237 3.821 3.821 0 0 1 .339-.237zm-.76.635a4.043 4.043 0 0 1 .428-.4 3.413 3.413 0 0 0-.42.4zm-1.437 14.8a3.929 3.929 0 0 1-.364-.423 3.468 3.468 0 0 0 .372.42zm-.364-.423a3.851 3.851 0 0 1-.294-.473 3.573 3.573 0 0 0 .302.47z" transform="translate(-403.865 -237.726)"/>
        <path id="패스_11559" data-name="패스 11559" class="cls-1" d="m147.545 169.2-18.658-2.989 1.094-6.835-18.9-3.029a1.365 1.365 0 0 0-1.51.857 1.338 1.338 0 0 0 1.044 1.769l16.3 2.611h.017l-3.3 20.6-22.681-3.632-1.657 10.328 22.684 3.634-2.292 14.3-1.009 6.292v.007L79.791 206.9v-.01l1.009-6.29 6.248-39 1-6.235 17.921 2.87a1.368 1.368 0 0 0 1.512-.857 1.338 1.338 0 0 0-1.044-1.769L88.4 152.718a4.452 4.452 0 0 0-3.744-4.334l-.1-.015a4.453 4.453 0 0 0-5.1 3.689l-.224 1.39-11.409-1.826a9.973 9.973 0 0 0-7.184 1.594c-.154.1-.306.212-.456.324a9.973 9.973 0 0 0-3.824 6.377l-.8 4.985-13.98-2.239a6.5 6.5 0 0 0-7.406 5.189L33.8 170.2a2.037 2.037 0 0 0-.389-.107c-5.782-.967-10.388-.1-13.688 2.558-6.108 4.932-6.576 14.909-6.992 23.71-.075 1.592-.144 3.1-.247 4.554-.354 5.144-.722 10.462-2.464 15.278-3.078 8.507-8.675 11.583-19.962 10.95-5.169-.291-9.095-4.489-11.045-8.32-2.374-4.663-3.047-10.091-3.694-15.34L-36.6 107.017c-1.156-9.356-2.215-15.5-9.1-23.478a32.779 32.779 0 0 0-27.177-11.407c-15.4 1.016-25.949 13.315-25.643 29.913A1.989 1.989 0 0 0-96.489 104a1.993 1.993 0 0 0 1.955-2.03c-.267-14.358 8.749-24.993 21.921-25.86a28.812 28.812 0 0 1 23.887 10.034c5.839 6.763 6.972 11.7 8.166 21.361l11.922 96.466c.658 5.331 1.4 11.372 4.1 16.66 3.129 6.148 8.639 10.169 14.376 10.49 1.024.057 2 .087 2.944.087a25.607 25.607 0 0 0 11.484-2.234c4.394-2.15 7.5-5.889 9.5-11.427 1.931-5.341 2.317-10.941 2.693-16.356.1-1.5.174-3.027.252-4.643.374-7.964.8-16.989 5.513-20.8 2.409-1.943 5.854-2.508 10.53-1.729a1.782 1.782 0 0 0 .428.022L32.548 178a6.5 6.5 0 0 0 5.416 7.242l13.98 2.239-.83 5.186a9.953 9.953 0 0 0 1.642 7.251c.092.132.182.262.281.389a9.968 9.968 0 0 0 6.375 3.821l11.409 1.828-.222 1.393a4.456 4.456 0 0 0 3.692 5.1l.1.015a4.455 4.455 0 0 0 4.91-2.947l41.581 6.661 1.1-6.838 18.661 2.989a3.9 3.9 0 0 0 1.231-7.695l-18.664-2.984 4.444-27.743 18.658 2.989a3.9 3.9 0 0 0 1.233-7.692zm-94.76 13.038-.391 2.444-13.98-2.239a2.744 2.744 0 0 1-.291-.06l-.142-.037a3.099 3.099 0 0 1-.277-.092 3.707 3.707 0 0 1-.394-.174q-.127-.067-.247-.142a3.614 3.614 0 0 1-.658-.523 3.469 3.469 0 0 1-.364-.423 3.569 3.569 0 0 1-.294-.473c-.022-.042-.042-.085-.065-.127-.032-.072-.065-.144-.095-.219a3.665 3.665 0 0 1-.2-.72 3.594 3.594 0 0 1-.007-1.2l1.562-9.755a3.7 3.7 0 0 1 .441-1.248 3.76 3.76 0 0 1 .197-.302c.032-.047.067-.095.1-.139q.075-.1.157-.187a3.413 3.413 0 0 1 .428-.4 2.77 2.77 0 0 1 .331-.237 2.949 2.949 0 0 1 .356-.2.393.393 0 0 1 .087-.04 1.36 1.36 0 0 1 .187-.08.679.679 0 0 1 .1-.037 1.3 1.3 0 0 1 .167-.055 3.55 3.55 0 0 1 1.455-.135q.09.007.179.022l13.98 2.24-2.329 14.538zm24.186 24.567-.244 1.525v.017c-.007.035-.012.07-.022.1a.866.866 0 0 1-.032.115.8.8 0 0 1-.027.082.208.208 0 0 1-.02.05 1.407 1.407 0 0 1-.177.324 1.526 1.526 0 0 1-.1.125.887.887 0 0 1-.067.072 1.573 1.573 0 0 1-.217.189.985.985 0 0 1-.107.07.752.752 0 0 1-.085.05c-.03.017-.06.03-.09.045a1.337 1.337 0 0 1-.2.075.281.281 0 0 1-.06.02l-.03.007a.961.961 0 0 1-.122.025 1.205 1.205 0 0 1-.137.017.7.7 0 0 1-.072 0 .031.031 0 0 1-.015 0h-.184c-.042 0-.082-.01-.127-.017l-.1-.015-.127-.025a1.648 1.648 0 0 1-.73-.389 1.661 1.661 0 0 1-.516-1.48l.244-1.525 1.126-7.025a1.4 1.4 0 0 0-1.161-1.6 1.35 1.35 0 0 0-.222-.017 1.4 1.4 0 0 0-1.38 1.178l-.7 4.354-11.41-1.821a3.135 3.135 0 0 1-.212-.037l-.06-.012a7.077 7.077 0 0 1-.954-.259c-.047-.017-.1-.032-.144-.052-.087-.03-.172-.065-.257-.1a4.683 4.683 0 0 1-.369-.165 7.454 7.454 0 0 1-.29-.147 1.723 1.723 0 0 1-.174-.1 7.054 7.054 0 0 1-1-.7q-.116-.093-.224-.194a4.845 4.845 0 0 1-.309-.3c-.04-.04-.08-.082-.117-.125a5.42 5.42 0 0 1-.217-.244 1.16 1.16 0 0 1-.112-.132c-.06-.075-.12-.152-.179-.229s-.137-.187-.2-.284a7.349 7.349 0 0 1-.518-.9c-.027-.055-.052-.112-.077-.169s-.062-.139-.092-.212q-.1-.239-.179-.486a7.552 7.552 0 0 1-.144-.5 7.152 7.152 0 0 1-.122-2.862l5.249-32.755a7.133 7.133 0 0 1 1.041-2.733 7.99 7.99 0 0 1 .296-.423c.1-.139.209-.272.324-.4.055-.065.112-.127.172-.189.032-.037.07-.075.107-.112.1-.107.209-.212.321-.311a.16.16 0 0 1 .022-.02 3.17 3.17 0 0 1 .3-.254c.07-.052.132-.1.2-.154a6.763 6.763 0 0 1 .638-.426c.082-.05.164-.1.249-.142.047-.027.1-.052.144-.077.08-.042.159-.08.242-.117.042-.02.085-.04.127-.057s.07-.032.107-.047q.269-.116.553-.209a5.661 5.661 0 0 1 .506-.144c.047-.015.095-.025.142-.035.07-.017.142-.032.212-.045.149-.032.3-.057.456-.075l.115-.015.2-.02c.07 0 .142-.01.212-.012s.125-.007.184-.01a1.04 1.04 0 0 1 .125 0 6.03 6.03 0 0 1 .872.042.338.338 0 0 1 .072.007q.138.015.277.037l11.412 1.828-.68 4.25-5.378 33.575a1.4 1.4 0 0 0 1.158 1.6 1.36 1.36 0 0 0 .224.017 1.4 1.4 0 0 0 1.38-1.176l6.5-40.6.229-1.42a1.444 1.444 0 0 1 .03-.149.042.042 0 0 1 0-.017 1.271 1.271 0 0 1 .042-.127c.01-.03.022-.06.035-.09l.03-.065a.1.1 0 0 1 .01-.025c.012-.025.027-.05.04-.075l.045-.07a1.411 1.411 0 0 1 .269-.324.446.446 0 0 1 .062-.057l.032-.027a.487.487 0 0 1 .057-.042.44.44 0 0 1 .055-.04c.027-.017.052-.035.082-.052a.884.884 0 0 1 .107-.057.235.235 0 0 1 .057-.025.18.18 0 0 1 .05-.022.433.433 0 0 1 .095-.035.04.04 0 0 1 .022-.007.378.378 0 0 1 .07-.022.3.3 0 0 1 .045-.012.468.468 0 0 1 .077-.015.479.479 0 0 1 .08-.012h.022a1.009 1.009 0 0 1 .122-.01.166.166 0 0 1 .05 0h.007a.653.653 0 0 1 .14 0 .366.366 0 0 1 .052 0c.035 0 .067.007.1.012l.1.017a1.629 1.629 0 0 1 .835.394.832.832 0 0 1 .082.08 1.669 1.669 0 0 1 .4.678 1.614 1.614 0 0 1 .05.742l-.227 1.417zm25.566-20.275.336-2.1.087-.546.334-2.08 19.672 3.154-.755 4.723zm38.858 21.072a.885.885 0 0 1 .745.884.771.771 0 0 1-.012.135.577.577 0 0 1-.02.09.439.439 0 0 1-.025.075.229.229 0 0 1-.022.057.4.4 0 0 1-.037.072.381.381 0 0 1-.047.075.346.346 0 0 1-.052.067.85.85 0 0 1-.154.144.832.832 0 0 1-.277.132.821.821 0 0 1-.247.037h-.07a.246.246 0 0 1-.06-.007.085.085 0 0 1-.025 0l-18.643-2.987.162-1.016.12-.745zm6.422-34.506a.27.27 0 0 1 0 .045.729.729 0 0 1-.025.132.009.009 0 0 1 0 .007.425.425 0 0 1-.025.08.845.845 0 0 1-.222.331.43.43 0 0 1-.062.055l-.027.022a.821.821 0 0 1-.189.1.87.87 0 0 1-.473.055l-18.664-2.983.157-.986.125-.775 18.658 2.989a.885.885 0 0 1 .747.912.031.031 0 0 1 0 .02z"/>
        <path id="패스_11560" data-name="패스 11560" class="cls-1" d="m1075.845 489.062.007.027a.127.127 0 0 0-.007-.027zm-.085-.324c.022.067.04.137.057.207-.007-.025-.012-.05-.02-.072-.01-.045-.025-.09-.037-.135zm-.563-1.106a1.29 1.29 0 0 0-.07-.095 3.2 3.2 0 0 1 .2.281c-.04-.06-.08-.115-.12-.169a.114.114 0 0 0-.007-.017zm-.145-.182a.811.811 0 0 1 .075.087c-.03-.037-.062-.077-.095-.115zm-18.91 13.492.379-2.367-.381 2.367zm-1.228-31.774c.1.087.2.177.3.274-.065-.06-.127-.12-.194-.179a9.962 9.962 0 0 1-.105-.095zm-.869-.643c.03.017.06.035.09.055a2.642 2.642 0 0 0-.157-.1zm-.137-.085c.022.012.047.025.07.04a1.481 1.481 0 0 0-.177-.1c.038.02.073.039.107.061zm-.334-.187c.04.017.077.04.117.062l.11.06a5.812 5.812 0 0 0-.658-.334c.148.066.29.136.432.213zm-.877-.391a7.273 7.273 0 0 1-.094-.034c.032.013.064.023.097.035zm-.351-.12c.087.026.172.057.257.086-.033-.011-.064-.024-.1-.034-.049-.018-.103-.033-.157-.051zm-.685-.174-.122-.025c.137.025.274.052.406.087a.835.835 0 0 0-.1-.022l-.184-.039zm-11.758-1.893 11.459 1.836.127.02-.127-.022zm-43.848-11.8 37.642 6.031c.082.012.164.027.244.045-.08-.017-.162-.035-.244-.047zm36.315 58.707.693-4.32zm-3.786 2.013c.027-.03.052-.06.077-.092-.05.062-.1.125-.157.182.028-.027.055-.057.08-.085zm-.2.222a3.57 3.57 0 0 1-.087.085l.083-.082zm-1.071.767c.06-.03.12-.062.177-.092a3.565 3.565 0 0 1-.336.169c.046-.022.102-.047.155-.074zm-.558.232c.042-.012.082-.027.122-.042l-.022.007c-.037.019-.072.028-.104.037zm-.1.032c.035-.01.07-.02.1-.032-.052.02-.107.035-.159.05l.053-.015zm-.6.137a3.577 3.577 0 0 0 .032-.007zm-.381.037a.367.367 0 0 0 .052 0 2.128 2.128 0 0 1-.219.01c.046.001.1-.002.158-.007zm-.523 0 .122.007a.3.3 0 0 1-.05-.005.715.715 0 0 1-.081.001zm-30.087-55.89.944-5.886c.005-.027.007-.055.01-.082l-.957 5.969zm-1.853-7q.022.086.037.179a1.624 1.624 0 0 0-.062-.274c-.002.034.008.063.014.096zm-.747-1h.005a.943.943 0 0 1 .1.065 1.149 1.149 0 0 0-.1-.067zm-2.847 2.775.262-1.639a2.061 2.061 0 0 1 .05-.222 1.52 1.52 0 0 0-.052.222zm-5.817 55.232a1.654 1.654 0 0 1-.281.192 1.522 1.522 0 0 0 .281-.192zm-1.036.386a.8.8 0 0 0 .112-.007.567.567 0 0 0 .067-.005 1.6 1.6 0 0 1-.208.012zm-.029 0zm-.053 0a1.735 1.735 0 0 1-.205-.018 1.756 1.756 0 0 0 .205.016zm-.509-.08a1.324 1.324 0 0 0 .2.047l.1.015-.1-.017c-.065-.015-.133-.03-.2-.047zm-.374-.162a1.893 1.893 0 0 1-.244-.174 1.553 1.553 0 0 0 .245.172zm-.799-1.689a1.14 1.14 0 0 0-.015.13c.005-.045.01-.087.017-.13l.214-1.333z" transform="translate(-808.917 -284.371)"/>
        <path id="패스_11561" data-name="패스 11561" class="cls-1" d="M1201.095 518.227a1.993 1.993 0 0 0-1.993-1.955h-.037a1.993 1.993 0 0 0-1.955 2.03c.267 14.358-8.749 24.993-21.921 25.86a28.825 28.825 0 0 1-23.887-10.034c-5.839-6.763-6.973-11.7-8.166-21.361l-11.923-96.467c-.658-5.331-1.4-11.374-4.1-16.66-3.129-6.148-8.639-10.169-14.374-10.49-6.153-.346-10.739.336-14.431 2.147-4.394 2.15-7.5 5.889-9.5 11.427-1.931 5.341-2.317 10.941-2.693 16.356-.1 1.5-.174 3.027-.252 4.643-.374 7.964-.8 16.989-5.513 20.8-2.409 1.945-5.854 2.508-10.53 1.729a.218.218 0 0 0-.04 0l.473-2.959a6.5 6.5 0 0 0-5.416-7.244l-13.98-2.239.8-4.985a9.947 9.947 0 0 0-1.684-7.311l-.219-.3a9.959 9.959 0 0 0-6.392-3.846l-11.838-1.9a7.016 7.016 0 0 0-5.849-5.592l-38.875-6.238a4.43 4.43 0 0 0-2.942-1.848l-.1-.017a4.453 4.453 0 0 0-5.1 3.692l-8.863 55.329a4.458 4.458 0 0 0 3.692 5.1l.1.017a4.437 4.437 0 0 0 3.373-.837l38.881 6.228a7.022 7.022 0 0 0 7.222-3.343l11.892 1.9a9.986 9.986 0 0 0 7.266-1.649c.095-.067.194-.137.291-.209a9.979 9.979 0 0 0 3.9-6.437l.832-5.184 13.98 2.239a6.5 6.5 0 0 0 7.406-5.189l.523-3.261h.015c5.782.967 10.388.1 13.688-2.558 6.108-4.932 6.576-14.909 6.992-23.71.075-1.592.144-3.1.244-4.556.356-5.142.725-10.46 2.466-15.275 3.076-8.512 8.676-11.581 19.961-10.951 5.169.291 9.095 4.489 11.045 8.32 2.374 4.663 3.047 10.091 3.694 15.34l11.922 96.466c1.156 9.356 2.214 15.5 9.1 23.478a32.757 32.757 0 0 0 24.946 11.479q1.106 0 2.219-.072c15.411-1.007 25.955-13.305 25.65-29.903zm-224.963-57.785-.214 1.333a1.593 1.593 0 0 1-.1.366 1.654 1.654 0 0 1-.232.4 1.462 1.462 0 0 1-.1.117l-.012.012a1.08 1.08 0 0 1-.125.115 1.522 1.522 0 0 1-.281.192.876.876 0 0 1-.1.047.089.089 0 0 1-.022.01.448.448 0 0 1-.09.035 1.253 1.253 0 0 1-.194.06.186.186 0 0 1-.065.012.507.507 0 0 1-.107.017 1.623 1.623 0 0 1-.466-.007l-.1-.015a1.321 1.321 0 0 1-.2-.047 1.28 1.28 0 0 1-.194-.07 1.519 1.519 0 0 1-.179-.092 1.549 1.549 0 0 1-.244-.174 1.658 1.658 0 0 1-.531-.892c-.01-.037-.015-.077-.022-.115a1.719 1.719 0 0 1-.012-.376 1.154 1.154 0 0 1 .015-.13l.214-1.333 8.387-52.355.262-1.639a1.512 1.512 0 0 1 .052-.222 1.763 1.763 0 0 1 .159-.364 1.59 1.59 0 0 1 .139-.2c.025-.03.052-.06.08-.09a1.642 1.642 0 0 1 .825-.473 1.655 1.655 0 0 1 .638-.025l.1.017a1.549 1.549 0 0 1 .59.219h.005a1.138 1.138 0 0 1 .1.067 1.086 1.086 0 0 1 .187.152.5.5 0 0 1 .08.082 1.6 1.6 0 0 1 .281.421 1.246 1.246 0 0 1 .062.159c0 .007.007.015.01.025a1.63 1.63 0 0 1 .062.274v.017c.005.035.01.065.012.1s0 .06 0 .092a1.825 1.825 0 0 1-.022.284l-.262 1.642zm67.475.68a7.18 7.18 0 0 1-8.213 5.946l-11.476-1.841.69-4.32 1.96-12.239a1.42 1.42 0 0 0-1.176-1.627 1.361 1.361 0 0 0-.224-.017 1.421 1.421 0 0 0-1.4 1.2l-2.738 17.1a.74.74 0 0 1-.022.107c0 .032-.012.062-.017.095s-.015.07-.025.1c0 .01-.005.017-.008.025a2.281 2.281 0 0 1-.052.189c-.007.03-.017.057-.025.085a.243.243 0 0 1-.012.04.284.284 0 0 1-.017.04c-.025.072-.052.144-.085.217s-.075.167-.117.249a.526.526 0 0 1-.04.075.773.773 0 0 1-.042.077c-.02.035-.037.07-.06.1-.007.01-.012.02-.02.03s-.027.045-.042.067c-.04.06-.08.122-.125.179s-.072.1-.112.142c-.05.062-.1.125-.157.182-.04.045-.08.087-.125.13-.027.027-.057.057-.087.082s-.06.057-.09.082a3.17 3.17 0 0 1-.257.209.718.718 0 0 1-.075.055 3.9 3.9 0 0 1-.386.247 3.537 3.537 0 0 1-.336.169q-.134.06-.276.112c-.04.015-.08.03-.122.042s-.107.035-.159.05c-.09.025-.179.05-.272.067s-.182.037-.274.052l-.174.022-.095.01h-.06a2.126 2.126 0 0 1-.219.01h-.234l-.122-.007c-.09 0-.184-.015-.276-.025-.05 0-.1-.012-.149-.02l-37.66-6.033.994-6.21h.017l6.985-43.6.957-5.969a2.318 2.318 0 0 0 .027-.291h.02l37.642 6.028c.082.012.164.03.244.047.017 0 .032.007.047.01q.116.026.224.06a.205.205 0 0 1 .052.015l.172.055.05.02a4.156 4.156 0 0 1 1.094.585c.03.02.057.042.085.065a.088.088 0 0 1 .03.025.973.973 0 0 1 .125.1c.062.05.12.1.177.159a1.085 1.085 0 0 1 .092.092 3.9 3.9 0 0 1 .433.521c.05.067.095.142.139.212a4.248 4.248 0 0 1 .237.448c.055.125.1.252.147.379.022.065.042.13.06.2a3.573 3.573 0 0 1 .087.4 3.83 3.83 0 0 1 0 1.228l-.369 2.3-3.841 23.979a1.419 1.419 0 0 0 2.8.448l4.1-25.581h.017l11.459 1.836.127.022a.291.291 0 0 1 .05.01c.137.025.274.052.406.087s.269.07.4.112a6.238 6.238 0 0 1 .8.3 5.81 5.81 0 0 1 .658.334c.06.032.12.067.177.1s.1.065.157.1a1.007 1.007 0 0 1 .092.062c.1.062.192.13.286.2.032.025.067.05.1.08.065.047.13.1.192.154a1.214 1.214 0 0 1 .107.09c.1.087.2.177.3.274h.005c.052.05.1.1.152.152s.1.1.149.159c.137.149.267.3.389.466a.929.929 0 0 1 .075.1 7.371 7.371 0 0 1 .555.872c.042.075.082.152.117.229s.075.154.112.234.07.157.1.237q.1.239.179.486c.025.085.052.167.075.249.025.082.05.167.07.252a7.179 7.179 0 0 1 .115 2.84zm23.817-18.088-1.562 9.755a3.606 3.606 0 0 1-.423 1.211 3.662 3.662 0 0 1-3.769 1.823l-13.98-2.239.381-2.367 2.342-14.615h.017l13.962 2.237a2.843 2.843 0 0 1 .289.06 2.752 2.752 0 0 1 .279.08 2.919 2.919 0 0 1 .291.11c.052.022.1.047.157.072a3.57 3.57 0 0 1 .677.426c.06.045.115.095.169.144a3.405 3.405 0 0 1 .326.331c.032.037.065.077.095.115a3.2 3.2 0 0 1 .2.281.31.31 0 0 1 .027.04c.025.037.047.077.07.117a1.186 1.186 0 0 1 .067.122c.045.08.085.164.122.249l.052.127a.391.391 0 0 1 .02.047l.025.07.01.03.037.117a2.737 2.737 0 0 1 .084.324.128.128 0 0 1 .005.03.443.443 0 0 1 .012.055 3.582 3.582 0 0 1 .018 1.248z" transform="translate(-799.627 -236.153)"/>
        <g id="그룹_5669" data-name="그룹 5669" transform="translate(232.642 193.942)">
            <path id="패스_11562" data-name="패스 11562" class="cls-1" d="M1225.189 581.659a1.37 1.37 0 0 1-1.136-1.569l3.507-21.891a1.37 1.37 0 1 1 2.706.433l-3.507 21.891a1.37 1.37 0 0 1-1.57 1.136z" transform="translate(-1224.035 -557.045)"/>
            <path id="패스_11563" data-name="패스 11563" class="cls-1" d="M1246.912 585.139a1.37 1.37 0 0 1-1.136-1.569l3.507-21.891a1.37 1.37 0 0 1 2.706.433L1248.481 584a1.37 1.37 0 0 1-1.569 1.139z" transform="translate(-1240.347 -559.658)"/>
        </g>
        <g id="그룹_5670" data-name="그룹 5670" transform="translate(139.428 144.899)">
            <path id="패스_11564" data-name="패스 11564" class="cls-1" d="M859.292 396.966a.566.566 0 0 1-.385-.151l-7.271-6.705a.568.568 0 1 1 .771-.836l7.271 6.706a.568.568 0 0 1-.385.986z" transform="translate(-851.453 -382.362)"/>
            <path id="패스_11565" data-name="패스 11565" class="cls-1" d="M910.443 372.8a.569.569 0 0 1-.556-.453l-2-9.676a.569.569 0 0 1 1.114-.231l2 9.676a.569.569 0 0 1-.441.672.577.577 0 0 1-.117.012z" transform="translate(-893.817 -361.983)"/>
            <path id="패스_11566" data-name="패스 11566" class="cls-1" d="M954.555 379.146a.569.569 0 0 1-.529-.775l3.613-9.284a.568.568 0 0 1 1.06.412l-3.613 9.284a.568.568 0 0 1-.531.363z" transform="translate(-928.445 -367.046)"/>
            <path id="패스_11567" data-name="패스 11567" class="cls-1" d="M984.5 410.452a.568.568 0 0 1-.4-.977l7.1-6.885a.568.568 0 0 1 .791.816l-7.1 6.885a.567.567 0 0 1-.391.161z" transform="translate(-950.928 -392.355)"/>
        </g>
        <g id="그룹_5671" data-name="그룹 5671" transform="translate(123.548 224.206)">
            <path id="패스_11568" data-name="패스 11568" class="cls-1" d="M788.64 682.628a.568.568 0 0 1-.223-1.091l9.1-3.877a.568.568 0 1 1 .445 1.046l-9.1 3.877a.564.564 0 0 1-.222.045z" transform="translate(-788.071 -677.614)"/>
            <path id="패스_11569" data-name="패스 11569" class="cls-1" d="M832.678 713.368a.569.569 0 0 1-.485-.864l5.135-8.442a.568.568 0 1 1 .971.591l-5.135 8.442a.568.568 0 0 1-.486.273z" transform="translate(-821.14 -697.269)"/>
            <path id="패스_11570" data-name="패스 11570" class="cls-1" d="M891.176 722.792a.568.568 0 0 1-.568-.552l-.288-9.958a.569.569 0 0 1 1.137-.033l.288 9.958a.568.568 0 0 1-.552.585z" transform="translate(-864.849 -703.207)"/>
            <path id="패스_11571" data-name="패스 11571" class="cls-1" d="M931.553 709.074a.568.568 0 0 1-.51-.317l-4.379-8.869a.568.568 0 1 1 1.019-.5l4.379 8.869a.569.569 0 0 1-.509.82z" transform="translate(-892.095 -693.724)"/>
        </g>
    </g>
</svg>
