<svg xmlns="http://www.w3.org/2000/svg" width="190" height="135">
    <defs>
        <style>
            .cls-1{fill:#4b3f8f}
        </style>
    </defs>
    <g id="그룹_5668" data-name="그룹 5668" transform="translate(-11.247 -22.045)">
        <path id="패스_11554" data-name="패스 11554" class="cls-1" d="m200.591 149.3-19.136-34.555a4.123 4.123 0 0 0-.211-.326 3.825 3.825 0 0 0 .074-.734V27.123a5.125 5.125 0 0 0-5.155-5.078H36.33a5.125 5.125 0 0 0-5.155 5.078v86.566a3.824 3.824 0 0 0 .074.734 3.947 3.947 0 0 0-.211.326L11.9 149.3a5.126 5.126 0 0 0 .1 5.179 5.29 5.29 0 0 0 4.569 2.562h179.357a5.287 5.287 0 0 0 4.569-2.562 5.126 5.126 0 0 0 .096-5.179zM36.009 27.123a.32.32 0 0 1 .321-.319h139.833a.32.32 0 0 1 .321.319v85.6H36.009zM196.34 152.054a.458.458 0 0 1-.414.229H16.567a.458.458 0 0 1-.414-.229.447.447 0 0 1-.01-.471l18.883-34.1h142.441l18.881 34.1a.441.441 0 0 1-.008.471z"/>
        <path id="패스_11555" data-name="패스 11555" class="cls-1" d="M55.712 52.507c2.2 2.2 5.606-1.213 3.407-3.41q-3.61-3.614-7.223-7.226 3.61-3.61 7.223-7.226c2.2-2.2-1.211-5.606-3.407-3.41l-7.226 7.226-7.226-7.226c-2.2-2.2-5.606 1.213-3.41 3.41l7.226 7.226q-3.61 3.614-7.226 7.226c-2.2 2.2 1.213 5.606 3.41 3.41l7.226-7.226q3.614 3.619 7.226 7.226z" transform="translate(37.604 11.946)"/>
        <path id="패스_11556" data-name="패스 11556" class="cls-1" d="m68.335 41.871 7.226-7.226c2.2-2.2-1.211-5.606-3.41-3.41l-7.226 7.226-7.225-7.225c-2.2-2.2-5.606 1.213-3.407 3.41q3.61 3.614 7.223 7.226-3.61 3.614-7.223 7.226c-2.2 2.2 1.211 5.606 3.407 3.41l7.226-7.226 7.226 7.226c2.2 2.2 5.606-1.213 3.41-3.41l-7.227-7.227z" transform="translate(61.477 11.946)"/>
        <path id="패스_11557" data-name="패스 11557" class="cls-1" d="M40.476 53.97c-2.233 2.162 1.179 5.57 3.407 3.41a29.972 29.972 0 0 1 41.881 0c2.228 2.16 5.643-1.245 3.407-3.41a34.881 34.881 0 0 0-48.695 0z" transform="translate(41.423 31.072)"/>
    </g>
</svg>
