<svg xmlns="http://www.w3.org/2000/svg" width="12" height="12">
    <defs>
        <style>
            .cls-1{fill:#4b3f8f}
        </style>
    </defs>
    <g id="그룹_5663" data-name="그룹 5663" transform="translate(-625.842 -190.045)">
        <path id="패스_11552" data-name="패스 11552" class="cls-1" d="m637.788 199.389-1.175-1.643v-2.893a4.8 4.8 0 0 0-4.772-4.808 4.742 4.742 0 0 0-.578.037l-.058-.021-.088.04a4.8 4.8 0 0 0-4.047 4.752v2.893l-1.175 1.643a.286.286 0 0 0-.022.3.282.282 0 0 0 .251.155h11.435a.282.282 0 0 0 .251-.155.286.286 0 0 0-.022-.3z"/>
        <path id="패스_11553" data-name="패스 11553" class="cls-1" d="m655.862 251.868.028-.045h-2.965a.282.282 0 0 0-.282.282 1.675 1.675 0 1 0 3.35 0 .281.281 0 0 0-.131-.237z" transform="translate(-22.476 -51.736)"/>
    </g>
</svg>
