<svg xmlns="http://www.w3.org/2000/svg" width="24" height="24" viewBox="0 0 24 24">
    <defs>
        <style>
            .cls-1{fill:#ccc}
        </style>
    </defs>
    <g id="Icon_ionic-ios-checkmark-circle-outline" transform="translate(-3.375 -3.375)">
        <path id="패스_81" d="M22.262 13.563l-.972-1.273a.191.191 0 0 0-.155-.084.184.184 0 0 0-.155.084l-6.737 8.641-2.45-3.121a.184.184 0 0 0-.309 0l-.984 1.252a.336.336 0 0 0 0 .4l3.093 3.938a.912.912 0 0 0 .646.4.964.964 0 0 0 .641-.387h.006l7.383-9.45a.364.364 0 0 0-.007-.4z" class="cls-1" transform="translate(-1.001 -2.626)"/>
        <path id="패스_82" d="M15.375 4.99a10.381 10.381 0 1 1-7.344 3.04 10.316 10.316 0 0 1 7.344-3.04m0-1.615a12 12 0 1 0 12 12 12 12 0 0 0-12-12z" class="cls-1"/>
    </g>
</svg>
