<svg xmlns="http://www.w3.org/2000/svg" viewBox="0 0 11 11">
    <path fill="currunt" d="M348.029 492.069a.338.338 0 0 0 .008-.072.344.344 0 0 0-.008-.071 5.477 5.477 0 0 0-1.339-3.522v-.01a.336.336 0 0 0-.082-.091 5.5 5.5 0 0 0-2.862-1.671.331.331 0 0 0-.046-.011 5.5 5.5 0 1 0 0 10.751l.037-.009a5.507 5.507 0 0 0 4.292-5.294zm-9.286 2.906a4.8 4.8 0 0 1-1.018-2.64h2.017a12.119 12.119 0 0 0 .24 2.144 6.4 6.4 0 0 0-1.239.496zm1.4.159a7.08 7.08 0 0 0 .5 1.3 4.836 4.836 0 0 1-1.425-.942 5.885 5.885 0 0 1 .923-.358zM338.759 489a6.428 6.428 0 0 0 1.228.489 12.1 12.1 0 0 0-.245 2.17h-2.017a4.8 4.8 0 0 1 1.034-2.659zm.474-.515a4.836 4.836 0 0 1 1.405-.924 7.05 7.05 0 0 0-.489 1.273 5.9 5.9 0 0 1-.916-.348zm7.08.52a4.8 4.8 0 0 1 1.031 2.655h-2a12.092 12.092 0 0 0-.245-2.17 6.44 6.44 0 0 0 1.213-.485zm-1.381-.17a7.046 7.046 0 0 0-.486-1.266 4.838 4.838 0 0 1 1.393.92 5.917 5.917 0 0 1-.907.346zm-.268 2.825h-4.247a11.5 11.5 0 0 1 .227-2.009 9.726 9.726 0 0 0 3.792 0 11.5 11.5 0 0 1 .228 2.009zm-4.247.675h4.247a11.517 11.517 0 0 1-.222 1.982 9.735 9.735 0 0 0-3.8 0 11.525 11.525 0 0 1-.225-1.982zm4.922 0h2a4.8 4.8 0 0 1-1.015 2.635 6.414 6.414 0 0 0-1.23-.491 12.123 12.123 0 0 0 .244-2.144zm.521 3.152a4.838 4.838 0 0 1-1.414.939 7.093 7.093 0 0 0 .493-1.292 5.875 5.875 0 0 1 .92.353zm-2.4-8.224a5.038 5.038 0 0 1 .817 1.733 9.118 9.118 0 0 1-3.47 0 5.028 5.028 0 0 1 .82-1.736 4.793 4.793 0 0 1 1.834 0zm-1.833 9.473a5.066 5.066 0 0 1-.827-1.763 9.123 9.123 0 0 1 3.485 0 5.074 5.074 0 0 1-.825 1.76 4.786 4.786 0 0 1-1.833 0z" transform="translate(-337.037 -486.498)"/>
</svg>
