<svg xmlns="http://www.w3.org/2000/svg" width="9.375" height="10" viewBox="0 0 9.375 10">
    <path fill="#5cae6a" d="M9.219 6.532L6.564 5l2.655-1.532a.312.312 0 0 0 .114-.427l-.625-1.082a.313.313 0 0 0-.427-.114L5.626 3.376V.313A.313.313 0 0 0 5.313 0H4.062a.313.313 0 0 0-.312.313v3.063L1.095 1.844a.313.313 0 0 0-.427.114L.042 3.041a.312.312 0 0 0 .114.427L2.811 5 .157 6.532a.312.312 0 0 0-.114.427l.624 1.082a.313.313 0 0 0 .427.114L3.75 6.624v3.064a.313.313 0 0 0 .312.312h1.251a.313.313 0 0 0 .313-.312V6.624l2.655 1.532a.313.313 0 0 0 .427-.114l.625-1.083a.312.312 0 0 0-.114-.427z" transform="translate(0)"/>
</svg>
