<svg xmlns="http://www.w3.org/2000/svg" viewBox="0 0 13 13">
    <g transform="translate(-427.866 -568.669)">
        <path  fill="current"  d="M456.465 586.386a2.193 2.193 0 1 0-2.193-2.193 2.2 2.2 0 0 0 2.193 2.193zm0-3.407a1.214 1.214 0 1 1-1.214 1.214 1.216 1.216 0 0 1 1.214-1.214z" transform="translate(-22.099 -11.157)"/>
        <path  fill="current"  d="M439.128 579.587a6.5 6.5 0 1 0-9.524 0l-.017.041.092.038a6.484 6.484 0 0 0 9.374 0l.092-.038zm-4.762-9.939a5.517 5.517 0 0 1 4.315 8.96 4.958 4.958 0 0 0-8.631 0 5.517 5.517 0 0 1 4.315-8.96zm-3.6 9.7a3.98 3.98 0 0 1 7.2 0 5.5 5.5 0 0 1-7.2 0z" />
    </g>
</svg>
