<svg xmlns="http://www.w3.org/2000/svg" viewBox="0 0 14 14">
    <path fill="gray" d="M52.358 162.861a7 7 0 1 0 7 7 7 7 0 0 0-7-7zm0 11.3a.521.521 0 1 1 .521-.521.521.521 0 0 1-.521.52zm2.077-4.6a2.652 2.652 0 0 1-1.45.936.456.456 0 0 0-.353.441v1.185a.274.274 0 1 1-.549 0v-1.185a1 1 0 0 1 .772-.974 2.08 2.08 0 0 0 1.593-2.061 2.1 2.1 0 0 0-2.061-2.061h-.03a2.091 2.091 0 0 0-2.091 2.091.274.274 0 1 1-.549 0A2.64 2.64 0 0 1 55 167.89a2.648 2.648 0 0 1-.565 1.666z" transform="translate(-45.358 -162.861)"/>
</svg>
