<svg xmlns="http://www.w3.org/2000/svg" width="5" height="5" viewBox="0 0 5 5">
    <path fill="#ff2c2c" d="M4.917 3.266L3.5 2.5l1.416-.766a.151.151 0 0 0 .061-.213L4.644.979a.173.173 0 0 0-.227-.057L3 1.688V.156A.162.162 0 0 0 2.834 0h-.667A.162.162 0 0 0 2 .156v1.532L.584.922a.173.173 0 0 0-.228.057l-.334.541a.151.151 0 0 0 .061.213L1.5 2.5l-1.416.766a.151.151 0 0 0-.061.213l.334.541a.173.173 0 0 0 .228.057L2 3.312v1.532A.162.162 0 0 0 2.167 5h.667A.162.162 0 0 0 3 4.844V3.312l1.416.766a.173.173 0 0 0 .228-.057l.334-.541a.151.151 0 0 0-.061-.214z" transform="translate(0)"/>
</svg>
