<svg xmlns="http://www.w3.org/2000/svg" width="100" height="26.522" viewBox="0 0 100 26.522">
    <defs>
        <linearGradient id="linear-gradient" x2="1" y1=".5" y2=".5" gradientUnits="objectBoundingBox">
            <stop offset="0" stop-color="#5cae6a"/>
            <stop offset=".192" stop-color="#5cae6a"/>
            <stop offset=".475" stop-color="#419893"/>
            <stop offset=".771" stop-color="#4b3f8f"/>
            <stop offset="1" stop-color="#4b3f8f"/>
        </linearGradient>
        <style>
            .cls-2{fill:#878787}.cls-3{fill:#fff}
        </style>
    </defs>
    <g id="그룹_13" transform="translate(737.48 -221.461)">
        <g id="그룹_9" transform="translate(-737.48 221.461)">
            <path id="패스_33" fill="url(#linear-gradient)" d="M-641.921 241.741c-9.515 0-19.635-1.356-25.5-3.485-2.385-.866-4.355-1.676-6.094-2.39a47.089 47.089 0 0 0-13.533-3.891c-6.308-.846-11.357-.439-19 .178l-2.536.2c-6.02.474-11.393.741-16.2-.8a28.046 28.046 0 0 1-12.362-7.84 1.387 1.387 0 0 1 .08-1.9 1.25 1.25 0 0 1 1.819.083 26.049 26.049 0 0 0 11.221 7.087c4.374 1.406 9.493 1.144 15.247.691q1.315-.1 2.531-.2c7.8-.629 12.956-1.045 19.526-.164a49.705 49.705 0 0 1 14.147 4.055c1.717.7 3.662 1.5 6 2.352 5.121 1.86 15.995 3.683 27.764 3.285a1.316 1.316 0 0 1 1.328 1.3 1.321 1.321 0 0 1-1.245 1.387c-1.05.035-2.118.052-3.193.052z" transform="translate(737.48 -221.461)"/>
        </g>
        <g id="그룹_10" transform="translate(-716.183 245.307)">
            <path id="패스_34" d="M-647.628 320.892v1.17a2.188 2.188 0 0 1-.944.215 1.137 1.137 0 0 1-1.177-1.294 1.184 1.184 0 0 1 1.25-1.293 2.145 2.145 0 0 1 .842.178l-.146.394a1.868 1.868 0 0 0-.7-.139c-.514 0-.721.346-.721.86s.2.86.67.86a1.122 1.122 0 0 0 .415-.066v-.463l-.441-.062v-.361z" class="cls-2" transform="translate(649.749 -319.69)"/>
            <path id="패스_35" d="M-633.508 319.915v2.055h1.068v.423h-1.574v-2.478z" class="cls-2" transform="translate(637.835 -319.86)"/>
            <path id="패스_36" d="M-620.628 322.278a1.148 1.148 0 0 1-1.2-1.294 1.148 1.148 0 0 1 1.2-1.293 1.149 1.149 0 0 1 1.192 1.293 1.149 1.149 0 0 1-1.192 1.294zm0-.434c.488 0 .663-.372.663-.86s-.175-.86-.663-.86-.667.372-.667.86.175.86.667.86z" class="cls-2" transform="translate(628.602 -319.69)"/>
            <path id="패스_37" d="M-604.255 319.915c.6 0 .918.2.918.671a.536.536 0 0 1-.321.514v.007a.569.569 0 0 1 .426.579c0 .467-.269.707-.911.707h-1.02v-2.478zm-.4 1.006h.379c.292 0 .412-.069.412-.287s-.109-.3-.419-.3h-.372zm0 1.049h.471c.306 0 .426-.1.426-.32s-.117-.328-.448-.328h-.448z" class="cls-2" transform="translate(615.986 -319.86)"/>
            <path id="패스_38" d="M-589.253 322.393h-.558l-.164-.51h-.97l-.167.51h-.554l.911-2.478h.591zm-1.214-1.96l-.339 1.042h.689l-.339-1.042z" class="cls-2" transform="translate(605.765 -319.86)"/>
            <path id="패스_39" d="M-575.052 319.915v2.055h1.068v.423h-1.574v-2.478z" class="cls-2" transform="translate(593.569 -319.86)"/>
            <path id="패스_40" d="M-553.043 321.354h-1.042v1.039h-.506v-2.478h.506v1.017h1.042v-1.017h.507v2.478h-.507z" class="cls-2" transform="translate(577.692 -319.86)"/>
            <path id="패스_41" d="M-538.1 322.278a1.148 1.148 0 0 1-1.2-1.294 1.148 1.148 0 0 1 1.2-1.293 1.149 1.149 0 0 1 1.192 1.293 1.15 1.15 0 0 1-1.192 1.294zm0-.434c.488 0 .663-.372.663-.86s-.175-.86-.663-.86-.667.372-.667.86.174.86.667.86z" class="cls-2" transform="translate(566.11 -319.69)"/>
            <path id="패스_42" d="M-523.153 321.643a1.551 1.551 0 0 0 .685.208c.274 0 .408-.105.408-.313 0-.161-.091-.226-.35-.313l-.266-.088a.721.721 0 0 1-.586-.689c0-.452.31-.758.9-.758a1.794 1.794 0 0 1 .733.178l-.153.4a1.537 1.537 0 0 0-.58-.156c-.273 0-.382.113-.382.288 0 .127.055.222.255.284l.259.084c.467.146.689.346.689.722 0 .488-.354.784-.926.784a1.839 1.839 0 0 1-.841-.237z" class="cls-2" transform="translate(554.004 -319.69)"/>
            <path id="패스_43" d="M-508.27 319.915v.422h-.7v2.056h-.506v-2.056h-.7v-.422z" class="cls-2" transform="translate(544.056 -319.86)"/>
            <path id="패스_44" d="M-495.358 322.393h-.507v-2.478h.507z" class="cls-2" transform="translate(533.222 -319.86)"/>
            <path id="패스_45" d="M-484.863 321.625v-1.71h.507v2.478h-.536l-1.053-1.71h-.011v1.71h-.507v-2.478h.536l1.053 1.71z" class="cls-2" transform="translate(526.102 -319.86)"/>
            <path id="패스_46" d="M-468.851 320.892v1.17a2.188 2.188 0 0 1-.944.215 1.137 1.137 0 0 1-1.177-1.294 1.184 1.184 0 0 1 1.25-1.293 2.145 2.145 0 0 1 .842.178l-.146.394a1.868 1.868 0 0 0-.7-.139c-.514 0-.721.346-.721.86s.2.86.67.86a1.122 1.122 0 0 0 .415-.066v-.463l-.441-.062v-.361z" class="cls-2" transform="translate(514.372 -319.69)"/>
            <path id="패스_47" d="M-447.286 321.643a1.551 1.551 0 0 0 .685.208c.273 0 .408-.105.408-.313 0-.161-.091-.226-.35-.313l-.266-.088a.721.721 0 0 1-.587-.689c0-.452.31-.758.9-.758a1.8 1.8 0 0 1 .732.178l-.153.4a1.535 1.535 0 0 0-.579-.156c-.274 0-.383.113-.383.288 0 .127.055.222.255.284l.258.084c.467.146.689.346.689.722 0 .488-.353.784-.926.784a1.842 1.842 0 0 1-.842-.237z" class="cls-2" transform="translate(496.555 -319.69)"/>
            <path id="패스_48" d="M-431.8 319.915v.422h-1.155v.595h1.035v.422h-1.035v.616h1.166v.423h-1.673v-2.478z" class="cls-2" transform="translate(485.969 -319.86)"/>
            <path id="패스_49" d="M-419.666 322.393v-2.478h1.046c.587 0 .86.269.86.747a.666.666 0 0 1-.543.717l.678.955v.058h-.554l-.663-.98h-.317v.98zm1.02-1.4a.315.315 0 0 0 .357-.328.313.313 0 0 0-.357-.325h-.514v.653z" class="cls-2" transform="translate(475.521 -319.86)"/>
            <path id="패스_50" d="M-403.655 319.951l-.874 2.442h-.616l-.875-2.442v-.036h.55l.63 1.946h.011l.623-1.946h.55z" class="cls-2" transform="translate(465.188 -319.86)"/>
            <path id="패스_51" d="M-389.556 322.393h-.506v-2.478h.506z" class="cls-2" transform="translate(453.104 -319.86)"/>
            <path id="패스_52" d="M-379.949 319.69a1.7 1.7 0 0 1 .7.161l-.135.4a1.3 1.3 0 0 0-.569-.127c-.441 0-.678.346-.678.86s.237.86.678.86a1.3 1.3 0 0 0 .569-.127l.135.4a1.7 1.7 0 0 1-.7.161 1.156 1.156 0 0 1-1.206-1.294 1.156 1.156 0 0 1 1.206-1.294z" class="cls-2" transform="translate(446.359 -319.69)"/>
            <path id="패스_53" d="M-364.976 319.915v.422h-1.156v.595h1.035v.422h-1.035v.616h1.166v.423h-1.672v-2.478z" class="cls-2" transform="translate(435.366 -319.86)"/>
        </g>
        <g id="그룹_12" transform="translate(-732.877 224.262)">
            <g id="그룹_11" transform="translate(0 0)">
                <path id="패스_54" d="M-707.565 241.913l1.178 1.486.679.82a8.057 8.057 0 0 1 1.972 5.149 6.8 6.8 0 0 1-1.742 4.624 7.885 7.885 0 0 1-6.238 2.728 6.763 6.763 0 0 1-4.893-1.838 6.249 6.249 0 0 1-1.909-4.707 7.175 7.175 0 0 1 2.972-5.854 4.848 4.848 0 0 1 2.908-1.242 1.61 1.61 0 0 1 1.127.4 1.325 1.325 0 0 1 .435 1.025 1.743 1.743 0 0 1-1 1.46l-1.025.628a4.47 4.47 0 0 0-1.473 1.537 3.779 3.779 0 0 0-.589 1.947 3.344 3.344 0 0 0 1.031 2.517 3.623 3.623 0 0 0 2.619.993 4.14 4.14 0 0 0 3.048-1.313 4.263 4.263 0 0 0 1.294-3.093 4.069 4.069 0 0 0-.525-2.049 19.653 19.653 0 0 0-2.267-2.857 11.861 11.861 0 0 1-1.742-2.357h-3.458q-1.768 0-1.768-1.217a1.622 1.622 0 0 1 .621-1.364 2.8 2.8 0 0 1 1.748-.48h2.19a5.977 5.977 0 0 1 2.318-4.195 7.643 7.643 0 0 1 4.948-1.661 5.17 5.17 0 0 1 3.529 1.191 3.907 3.907 0 0 1 1.364 3.087 4.294 4.294 0 0 1-2.165 3.868 7.609 7.609 0 0 1-3.907.769zm-1.537-3.061h3.074q2.6 0 2.6-1.512a1.1 1.1 0 0 0-.532-.948 2.494 2.494 0 0 0-1.415-.359 4.072 4.072 0 0 0-2.517.858 2.7 2.7 0 0 0-1.208 1.961z" class="cls-3" transform="translate(718.517 -232.998)"/>
                <path id="패스_55" d="M-643.989 259.655h1.448q1.614 0 1.614 1.14a1.445 1.445 0 0 1-.57 1.217 2.576 2.576 0 0 1-1.595.435h-2.036a3.007 3.007 0 0 1-1.774-.461 1.461 1.461 0 0 1-.647-1.255 2.972 2.972 0 0 1 .269-1.076l2.113-5.2.141-.359a1.986 1.986 0 0 1 1.9-1.447 1.326 1.326 0 0 1 .929.359 1.125 1.125 0 0 1 .391.858 3.771 3.771 0 0 1-.346 1.255zm1.691-11.092a1.718 1.718 0 0 1 1.262.519 1.717 1.717 0 0 1 .519 1.262 1.716 1.716 0 0 1-.519 1.262 1.717 1.717 0 0 1-1.262.519 1.716 1.716 0 0 1-1.262-.519 1.716 1.716 0 0 1-.519-1.262 1.717 1.717 0 0 1 .519-1.262 1.717 1.717 0 0 1 1.26-.519z" class="cls-3" transform="translate(664.778 -244.784)"/>
                <path id="패스_56" d="M-615.193 248.428h1.345q1.627 0 1.627 1.14a1.445 1.445 0 0 1-.57 1.217 2.576 2.576 0 0 1-1.595.435h-2.305a2.3 2.3 0 0 1-1.5-.448 1.472 1.472 0 0 1-.551-1.2 4.177 4.177 0 0 1 .371-1.319l5.175-12.732.141-.346a1.977 1.977 0 0 1 1.883-1.435 1.283 1.283 0 0 1 .916.359 1.143 1.143 0 0 1 .378.858 2.407 2.407 0 0 1-.192.871l-.141.346z" class="cls-3" transform="translate(642.963 -233.557)"/>
                <path id="패스_57" d="M-582.549 245.8l1.985 3.112a1.9 1.9 0 0 1 .371.948 1.444 1.444 0 0 1-.493 1.063 1.561 1.561 0 0 1-1.108.474 1.132 1.132 0 0 1-.935-.576l-.154-.231-2.972-4.445-1.434 3.548q-.691 1.7-2.024 1.7a1.34 1.34 0 0 1-.929-.339 1.069 1.069 0 0 1-.378-.826 2.261 2.261 0 0 1 .205-.858l.141-.346 5.482-13.513.141-.346a1.977 1.977 0 0 1 1.883-1.435 1.3 1.3 0 0 1 .922.359 1.133 1.133 0 0 1 .384.858 2.379 2.379 0 0 1-.2.884l-.141.346-3.266 8.044 2.882-2.139a2.761 2.761 0 0 1 1.537-.666 1.24 1.24 0 0 1 .9.346 1.145 1.145 0 0 1 .359.858 1.972 1.972 0 0 1-.948 1.563l-.295.218z" class="cls-3" transform="translate(621.667 -233.557)"/>
                <path id="패스_58" d="M-540.236 262.726l-.435 1.076q-.589 1.435-1.537 1.434a1.382 1.382 0 0 1-.961-.346 1.108 1.108 0 0 1-.384-.858 3.217 3.217 0 0 1 .282-1l1.447-3.574q.525-1.293 1.486-1.294a1.08 1.08 0 0 1 1.166.9l.1.4a.55.55 0 0 0 .23.384 2.189 2.189 0 0 0 .756.077h3q1.678 0 1.678 1.178 0 1.627-2.126 1.627l-.141.128q-2.037 1.947-2.037 3.01t1.179 1.063h1.614q1.627 0 1.627 1.127a1.458 1.458 0 0 1-.57 1.23 2.576 2.576 0 0 1-1.595.435h-2.51a2.717 2.717 0 0 1-2.094-.884 3.252 3.252 0 0 1-.813-2.293 3.761 3.761 0 0 1 .435-1.742 10.7 10.7 0 0 1 1.537-2.075z" class="cls-3" transform="translate(586.028 -252.056)"/>
                <path id="패스_59" d="M-492.958 264.656a4.175 4.175 0 0 1 3.055 1.178 4.027 4.027 0 0 1 1.2 3 6.41 6.41 0 0 1-.628 2.722 5.922 5.922 0 0 1-1.627 2.158 3.937 3.937 0 0 1-1.377.724 7.775 7.775 0 0 1-1.992.2 5.453 5.453 0 0 1-2.818-.5 3.953 3.953 0 0 1-1.716-3.484 5.8 5.8 0 0 1 1.755-4.214 5.634 5.634 0 0 1 4.148-1.784zm-.307 2.728a2.244 2.244 0 0 0-1.729.935 3.142 3.142 0 0 0-.781 2.062q0 1.486 1.665 1.486a1.882 1.882 0 0 0 1.5-.6 3.309 3.309 0 0 0 .871-2.255 1.648 1.648 0 0 0-.423-1.178 1.444 1.444 0 0 0-1.103-.45z" class="cls-3" transform="translate(552.186 -256.971)"/>
                <path id="패스_60" d="M-445.437 271.842h1.409q1.614 0 1.614 1.127a1.455 1.455 0 0 1-.576 1.223 2.553 2.553 0 0 1-1.588.442h-1.64a1.5 1.5 0 0 1-1.5-.858 2.849 2.849 0 0 1-1.857.858h-1.46a2.851 2.851 0 0 1-2.273-1.005 3.894 3.894 0 0 1-.864-2.632 6.5 6.5 0 0 1 1.7-4.4 5.012 5.012 0 0 1 3.836-1.941 2.666 2.666 0 0 1 2.4 1.14 1.94 1.94 0 0 1 1.678-.961 1.314 1.314 0 0 1 .941.359 1.171 1.171 0 0 1 .378.884 2.34 2.34 0 0 1-.2.858l-.141.346zm-4.65.064h.32a1.356 1.356 0 0 0 1.4-.858l.9-2.216a2 2 0 0 0 .18-.73.744.744 0 0 0-.34-.6 1.312 1.312 0 0 0-.813-.256 2.429 2.429 0 0 0-1.819 1.089 3.543 3.543 0 0 0-.884 2.254q-.006 1.317 1.057 1.317z" class="cls-3" transform="translate(518.344 -256.971)"/>
                <path id="패스_61" d="M-394.852 247.869h1.46q1.626 0 1.627 1.14a1.438 1.438 0 0 1-.576 1.217 2.581 2.581 0 0 1-1.588.435h-1.729a1.555 1.555 0 0 1-1.46-.82 2.46 2.46 0 0 1-1.755.82h-1.627a2.87 2.87 0 0 1-2.273-.973 3.787 3.787 0 0 1-.852-2.588 6.666 6.666 0 0 1 1.685-4.445 4.917 4.917 0 0 1 3.785-1.972 3.044 3.044 0 0 1 2.472 1.114l2.857-7.006q.73-1.793 2.036-1.793a1.335 1.335 0 0 1 .935.352 1.128 1.128 0 0 1 .384.864 2.532 2.532 0 0 1-.192.9l-.154.346zm-4.688.064h.486a1.126 1.126 0 0 0 1.166-.7l.961-2.37a1.941 1.941 0 0 0 .179-.666.819.819 0 0 0-.326-.653 1.237 1.237 0 0 0-.814-.269 2.4 2.4 0 0 0-1.864 1.114 3.851 3.851 0 0 0-.864 2.408q0 1.136 1.076 1.136z" class="cls-3" transform="translate(480.069 -232.998)"/>
            </g>
        </g>
    </g>
</svg>
